<svg width="52" height="50" viewBox="0 0 52 50" fill="none" xmlns="http://www.w3.org/2000/svg">
<path d="M16.9332 5.90982C20.2105 -1.96994 31.3731 -1.96994 34.6505 5.90982V5.90982C36.0321 9.23172 39.1561 11.5014 42.7424 11.789V11.789C51.2493 12.4709 54.6987 23.0872 48.2173 28.6391V28.6391C45.485 30.9797 44.2917 34.6522 45.1265 38.1517V38.1517C47.1066 46.453 38.076 53.0142 30.7929 48.5657V48.5657C27.7226 46.6904 23.8611 46.6904 20.7907 48.5657V48.5657C13.5077 53.0142 4.47697 46.453 6.45712 38.1517V38.1517C7.2919 34.6522 6.09863 30.9797 3.36628 28.6391V28.6391C-3.11505 23.0872 0.334364 12.4709 8.84122 11.789V11.789C12.4275 11.5014 15.5515 9.23172 16.9332 5.90982V5.90982Z" fill="white"/>
</svg>
